<svg width="22" height="22" viewBox="0 0 22 22" fill="none" xmlns="http://www.w3.org/2000/svg">
<path d="M8.27286 21C8.77494 21 9.18195 20.5736 9.18195 20.0476C9.18195 19.5216 8.77494 19.0952 8.27286 19.0952C7.77078 19.0952 7.36377 19.5216 7.36377 20.0476C7.36377 20.5736 7.77078 21 8.27286 21Z" stroke="black" stroke-width="2" stroke-linecap="round" stroke-linejoin="round"/>
<path d="M18.2729 21C18.7749 21 19.182 20.5736 19.182 20.0476C19.182 19.5216 18.7749 19.0952 18.2729 19.0952C17.7708 19.0952 17.3638 19.5216 17.3638 20.0476C17.3638 20.5736 17.7708 21 18.2729 21Z" stroke="black" stroke-width="2" stroke-linecap="round" stroke-linejoin="round"/>
<path d="M1 1H4.63636L7.07273 13.7524C7.15586 14.1909 7.38355 14.5847 7.71595 14.865C8.04835 15.1454 8.46427 15.2943 8.89091 15.2857H17.7273C18.1539 15.2943 18.5698 15.1454 18.9022 14.865C19.2346 14.5847 19.4623 14.1909 19.5455 13.7524L21 5.7619H5.54545" stroke="black" stroke-width="2" stroke-linecap="round" stroke-linejoin="round"/>
</svg>
