<svg xmlns="http://www.w3.org/2000/svg" version="1.1" xmlns:xlink="http://www.w3.org/1999/xlink" xmlns:svgjs="http://svgjs.dev/svgjs" width="1000" height="290" viewBox="0 0 1000 290"><g transform="matrix(1,0,0,1,-0.6060589033976953,-0.08020721268542275)"><svg viewBox="0 0 396 115" data-background-color="#ffffff" preserveAspectRatio="xMidYMid meet" height="290" width="1000" xmlns="http://www.w3.org/2000/svg" xmlns:xlink="http://www.w3.org/1999/xlink"><g id="tight-bounds" transform="matrix(1,0,0,1,0.24000067425458838,0.031806308478707024)"><svg viewBox="0 0 395.52 114.93638738304259" height="114.93638738304259" width="395.52"><g><svg viewBox="0 0 395.52000000000004 114.9363873830426" height="114.93638738304259" width="395.52"><g><svg viewBox="0 0 395.52000000000004 114.9363873830426" height="114.9363873830426" width="395.52000000000004"><g id="textblocktransform"><svg viewBox="0 0 395.52000000000004 114.9363873830426" height="114.9363873830426" width="395.52000000000004" id="textblock"><g><svg viewBox="0 0 395.52000000000004 87.5563190184049" height="87.5563190184049" width="395.52000000000004"><g transform="matrix(1,0,0,1,0,0)"><svg width="395.52000000000004" viewBox="0.600001335144043 -39.60000228881836 391.6000061035156 83.60000610351562" height="87.5563190184049" data-palette-color="#ffa458"><svg></svg><svg></svg><g class="wordmark-text-0" data-fill-palette-color="primary" id="text-0"><path xmlns="http://www.w3.org/2000/svg" d="M24.05 0h-23.05v-8.2h2.5v-22.5h-2.5v-8.2h29.9v12.95h-8.85v-4.75h-4.55v8.3h7.55v5.7h-7.55v8.5h6.55zM55.85-38.9l8.45 30.7h2v8.2h-19.6v-8.2h3l-0.8-4h-6.8l-0.8 4h3v8.2h-17.1v-8.2h2l8.45-30.7zM45.25-27.45l-2.05 9.95h4.6l-2.05-9.95zM83.4 0.7c-3.2 0-6.223-0.277-9.07-0.83-2.853-0.547-5.047-1.17-6.58-1.87v0-9.9h11c0 1.033 0.233 1.783 0.7 2.25 0.467 0.467 1.317 0.7 2.55 0.7v0c1.033 0 1.777-0.16 2.23-0.48 0.447-0.313 0.67-0.787 0.67-1.42v0c0-0.533-0.217-0.993-0.65-1.38-0.433-0.38-1.183-0.77-2.25-1.17v0l-4.3-1.5c-3.7-1.4-6.357-3.05-7.97-4.95-1.62-1.9-2.43-4.467-2.43-7.7v0c0-3.933 1.293-6.923 3.88-8.97 2.58-2.053 6.887-3.08 12.92-3.08v0c2.9 0 5.627 0.29 8.18 0.87 2.547 0.587 4.603 1.363 6.17 2.33v0 8.95h-10c0-1.667-1.033-2.5-3.1-2.5v0c-1 0-1.707 0.123-2.12 0.37-0.42 0.253-0.63 0.697-0.63 1.33v0c0 0.567 0.243 1.017 0.73 1.35 0.48 0.333 1.27 0.683 2.37 1.05v0l4.35 1.5c3.533 1.2 6.11 2.757 7.73 4.67 1.613 1.92 2.42 4.43 2.42 7.53v0c0 4.233-1.423 7.433-4.27 9.6-2.853 2.167-7.03 3.25-12.53 3.25zM141.6-38.9v8.2h-2.5v22.5h2.5v8.2h-18.9v-8.2h2.4v-8.25h-7v8.25h2.4v8.2h-18.9v-8.2h2.5v-22.5h-2.5v-8.2h18.9v8.2h-2.4v7.6h7v-7.6h-2.4v-8.2zM162.6 0h-19v-8.2h2.5v-22.5h-2.5v-8.2h19v8.2h-2.5v22.5h2.5zM183.4 0.7c-6.1 0-10.807-1.6-14.12-4.8-3.32-3.2-4.98-8.317-4.98-15.35v0c0-7.033 1.66-12.15 4.98-15.35 3.313-3.2 8.02-4.8 14.12-4.8v0c6.1 0 10.81 1.6 14.13 4.8 3.313 3.2 4.97 8.317 4.97 15.35v0c0 7.033-1.657 12.15-4.97 15.35-3.32 3.2-8.03 4.8-14.13 4.8zM183.4-8.2c1.133 0 1.983-0.3 2.55-0.9 0.567-0.6 0.85-1.533 0.85-2.8v0-15.1c0-1.267-0.283-2.2-0.85-2.8-0.567-0.6-1.417-0.9-2.55-0.9v0c-1.133 0-1.983 0.3-2.55 0.9-0.567 0.6-0.85 1.533-0.85 2.8v0 15.1c0 1.3 0.283 2.24 0.85 2.82 0.567 0.587 1.417 0.88 2.55 0.88zM233-30.7v-8.2h16.4v8.2h-2.5v30.7h-14.05l-14.65-22.55v14.35h2.4v8.2h-16.4v-8.2h2.5v-22.5h-2.5v-8.2h18.05l13.15 20.05v-11.85zM279.55-38.9l8.45 30.7h2v8.2h-19.6v-8.2h3l-0.8-4h-6.8l-0.8 4h3v8.2h-17.1v-8.2h2l8.45-30.7zM268.95-27.45l-2.05 9.95h4.6l-2.05-9.95zM291.6 0v-8.2h2.5v-22.5h-2.5v-8.2h22.95c4.167 0 7.417 0.85 9.75 2.55 2.333 1.7 3.5 4.133 3.5 7.3v0c0 1.967-0.467 3.623-1.4 4.97-0.933 1.353-2.023 2.37-3.27 3.05-1.253 0.687-2.463 1.147-3.63 1.38v0 0.5c2.367 0.233 4.5 0.983 6.4 2.25 1.9 1.267 2.85 3.533 2.85 6.8v0c0 3.5-1.317 6.057-3.95 7.67-2.633 1.62-6.05 2.43-10.25 2.43v0zM308.1-22.5h2.7c0.967 0 1.693-0.26 2.18-0.78 0.48-0.513 0.72-1.32 0.72-2.42v0-1.8c0-1.1-0.24-1.91-0.72-2.43-0.487-0.513-1.213-0.77-2.18-0.77v0h-2.7zM308.1-8.2h3.05c0.967 0 1.693-0.257 2.18-0.77 0.48-0.52 0.72-1.33 0.72-2.43v0-2.2c0-1.1-0.24-1.91-0.72-2.43-0.487-0.513-1.213-0.77-2.18-0.77v0h-3.05zM361.3 0h-30.95v-8.2h2.5v-22.5h-2.5v-8.2h21.1v8.2h-4.6v22.5h4.5v-4.6h9.95zM376.85-30.7v-8.2h15.35v8.2h-2l-9.65 17.3v5.2h2.5v8.2h-19v-8.2h2.5v-5.2l-9.95-17.3h-2v-8.2h19.35v8.2h-1.75l2.95 7.75h0.5l2.95-7.75z" fill="#000000" fill-rule="nonzero" stroke="none" stroke-width="1" stroke-linecap="butt" stroke-linejoin="miter" stroke-miterlimit="10" stroke-dasharray="" stroke-dashoffset="0" font-family="none" font-weight="none" font-size="none" text-anchor="none" style="mix-blend-mode: normal" data-fill-palette-color="primary" opacity="1"></path><path xmlns="http://www.w3.org/2000/svg" d="M22.85 12.6v-8.2h15.35v8.2h-2l-9.65 17.3v5.2h2.5v8.2h-19v-8.2h2.5v-5.2l-9.95-17.3h-2v-8.2h19.35v8.2h-1.75l2.95 7.75h0.5l2.95-7.75zM57.1 44c-6.1 0-10.807-1.6-14.12-4.8-3.32-3.2-4.98-8.317-4.98-15.35v0c0-7.033 1.66-12.15 4.98-15.35 3.313-3.2 8.02-4.8 14.12-4.8v0c6.1 0 10.81 1.6 14.13 4.8 3.313 3.2 4.97 8.317 4.97 15.35v0c0 7.033-1.657 12.15-4.97 15.35-3.32 3.2-8.03 4.8-14.13 4.8zM57.1 35.1c1.133 0 1.983-0.3 2.55-0.9 0.567-0.6 0.85-1.533 0.85-2.8v0-15.1c0-1.267-0.283-2.2-0.85-2.8-0.567-0.6-1.417-0.9-2.55-0.9v0c-1.133 0-1.983 0.3-2.55 0.9-0.567 0.6-0.85 1.533-0.85 2.8v0 15.1c0 1.3 0.283 2.24 0.85 2.82 0.567 0.587 1.417 0.88 2.55 0.88zM96.6 44c-5.233 0-9.273-1.15-12.12-3.45-2.853-2.3-4.28-6.033-4.28-11.2v0-16.75h-2.5v-8.2h18.5v8.2h-2v19.3c0 1.1 0.243 1.91 0.73 2.43 0.48 0.513 1.203 0.77 2.17 0.77v0c0.967 0 1.693-0.257 2.18-0.77 0.48-0.52 0.72-1.33 0.72-2.43v0-19.3h-2v-8.2h17.15v8.2h-2.5v16.75c0 5.167-1.383 8.9-4.15 11.2-2.767 2.3-6.733 3.45-11.9 3.45zM116.95 43.3v-8.2h2.5v-22.5h-2.5v-8.2h22.95c4.3 0 7.583 0.883 9.85 2.65 2.267 1.767 3.4 4.633 3.4 8.6v0c0 2.233-0.45 4.167-1.35 5.8-0.9 1.633-2.183 2.767-3.85 3.4v0l0.05 0.5c3.2 0.5 4.8 2.467 4.8 5.9v0 3.85h2.35v8.2h-15.85v-11.75c0-1.3-0.19-2.283-0.57-2.95-0.387-0.667-0.987-1.117-1.8-1.35-0.82-0.233-1.98-0.35-3.48-0.35v0 8.2h3.3v8.2zM133.45 20.8h2.7c0.967 0 1.693-0.26 2.18-0.78 0.48-0.513 0.72-1.32 0.72-2.42v0-1.8c0-1.1-0.24-1.91-0.72-2.43-0.487-0.513-1.213-0.77-2.18-0.77v0h-2.7zM172.45 44c-3.2 0-6.223-0.277-9.07-0.83-2.853-0.547-5.047-1.17-6.58-1.87v0-9.9h11c0 1.033 0.233 1.783 0.7 2.25 0.467 0.467 1.317 0.7 2.55 0.7v0c1.033 0 1.777-0.16 2.23-0.48 0.447-0.313 0.67-0.787 0.67-1.42v0c0-0.533-0.217-0.993-0.65-1.38-0.433-0.38-1.183-0.77-2.25-1.17v0l-4.3-1.5c-3.7-1.4-6.357-3.05-7.97-4.95-1.62-1.9-2.43-4.467-2.43-7.7v0c0-3.933 1.293-6.923 3.88-8.97 2.58-2.053 6.887-3.08 12.92-3.08v0c2.9 0 5.627 0.29 8.18 0.87 2.547 0.587 4.603 1.363 6.17 2.33v0 8.95h-10c0-1.667-1.033-2.5-3.1-2.5v0c-1 0-1.707 0.123-2.12 0.37-0.42 0.253-0.63 0.697-0.63 1.33v0c0 0.567 0.243 1.017 0.73 1.35 0.48 0.333 1.27 0.683 2.37 1.05v0l4.35 1.5c3.533 1.2 6.11 2.757 7.73 4.67 1.613 1.92 2.42 4.43 2.42 7.53v0c0 4.233-1.423 7.433-4.27 9.6-2.853 2.167-7.03 3.25-12.53 3.25z" fill="#000000" fill-rule="nonzero" stroke="none" stroke-width="1" stroke-linecap="butt" stroke-linejoin="miter" stroke-miterlimit="10" stroke-dasharray="" stroke-dashoffset="0" font-family="none" font-weight="none" font-size="none" text-anchor="none" style="mix-blend-mode: normal" data-fill-palette-color="secondary" opacity="1"></path></g></svg></g></svg></g><g transform="matrix(1,0,0,1,0,97.17524288)"><svg viewBox="0 0 232.20979200000002 17.761144503042598" height="17.761144503042598" width="232.20979200000002"><g transform="matrix(1,0,0,1,0,0)"><svg width="232.20979200000002" viewBox="5 -35.599998474121094 591.5499877929688 45.25" height="17.761144503042598" data-palette-color="#ba3b0a"><path d="M5-28.75L5-28.75 21-28.75 21-22.85 11.3-22.85 11.3-17.2 21-17.2 21-11.35 11.3-11.35 11.3 0 5 0 5-28.75ZM39.45-22.85L39.45-22.85 39.45-28.75 23.45-28.75 23.45-22.85 39.45-22.85ZM31.55-11.35L31.55-11.35 31.55-17.2 23.45-17.2 23.45-11.35 31.55-11.35ZM38.15-3.4L38.15-9.75 43.85-13.2 52.05-13.2 52.05-9.35 44.5-9.35 44.5-5.25 52.05-5.25 52.05 0.05 43.85 0.05 38.15-3.4ZM44.5-15.05L38.15-15.05 38.15-18.5 43.85-22 52.05-22 52.05-17.3 44.5-17.3 44.5-15.05ZM68.15 0.05L68.15-18.5 62.45-22 54.25-22 54.25-17.3 61.8-17.3 61.8-13.2 54.25-13.2 54.25-9.35 61.8-9.35 61.8-5.25 54.45-5.25 54.45 0.05 68.15 0.05ZM106.45-9.7L106.45-3.45 100.75 0 92.7 0 92.7-5.25 100.4-5.25 100.4-9.3 92.85-9.3 92.85-13.2 100.75-13.2 106.45-9.7ZM76.65-12.75L76.65-18.4 82.35-21.85 90.45-21.85 90.45-17.2 82.95-17.2 82.95-13.2 90.45-13.2 90.45-9.3 82.35-9.3 76.65-12.75ZM76.65-6.95L82.95-6.95 82.95-5.25 90.45-5.25 90.45 0 82.35 0 76.65-3.45 76.65-6.95ZM106.45-15.05L100.2-15.05 100.2-17.2 92.7-17.2 92.7-21.85 100.75-21.85 106.45-18.4 106.45-15.05ZM115.44 0.05L115.44-28.75 121.59-28.75 121.59-22 129.19-22 129.19-17.2 121.59-17.2 121.59 0.05 115.44 0.05ZM145.19 0.05L145.19-18.55 139.54-22 131.39-22 131.39-17.2 138.89-17.2 138.89 0.05 145.19 0.05ZM153.69-22L159.99-22 159.99 0.05 153.69 0.05 153.69-22ZM159.89-28.7L159.89-24.05 153.69-24.05 153.69-28.7 159.89-28.7ZM167.99-3.5L167.99-18.55 173.84-22 181.74-22 181.74-17.3 174.24-17.3 174.24-5.4 181.74-5.4 181.74-0.05 173.84-0.05 167.99-3.5ZM197.34-3.5L197.34-18.55 191.49-22 183.54-22 183.54-17.3 191.09-17.3 191.09-5.4 183.54-5.4 183.54-0.05 191.49-0.05 197.34-3.5ZM206.34-0.05L206.34-22 212.69-22 212.69-19.85 220.09-22 220.09-17.3 212.69-17.3 212.69-0.05 206.34-0.05ZM236.29-0.05L236.29-18.55 230.39-22 222.49-22 222.49-17.3 230.04-17.3 230.04-0.05 236.29-0.05ZM259.78-3.4L259.78-9.75 265.48-13.2 273.68-13.2 273.68-9.35 266.13-9.35 266.13-5.25 273.68-5.25 273.68 0.05 265.48 0.05 259.78-3.4ZM266.13-15.05L259.78-15.05 259.78-18.5 265.48-22 273.68-22 273.68-17.3 266.13-17.3 266.13-15.05ZM289.78 0.05L289.78-18.5 284.08-22 275.88-22 275.88-17.3 283.43-17.3 283.43-13.2 275.88-13.2 275.88-9.35 283.43-9.35 283.43-5.25 276.08-5.25 276.08 0.05 289.78 0.05ZM307.78-17.2L307.78-21.85 315.28-21.85 315.28-17.2 307.78-17.2ZM315.28-7.5L321.58-7.5 321.58-3.45 315.88 0 307.78 0 307.78-5.25 315.28-5.25 315.28-7.5ZM294.78-19.35L305.53-25.3 305.53-5.25 305.53 0 299.28-3.45 299.28-17.2 294.78-17.15 294.78-19.35ZM342.07-22L348.37-22 348.37 0.05 342.07 0.05 342.07-22ZM348.27-28.7L348.27-24.05 342.07-24.05 342.07-28.7 348.27-28.7ZM365.87-17.2L365.87-21.85 373.37-21.85 373.37-17.2 365.87-17.2ZM373.37-7.5L379.67-7.5 379.67-3.45 373.97 0 365.87 0 365.87-5.25 373.37-5.25 373.37-7.5ZM352.87-19.35L363.62-25.3 363.62-5.25 363.62 0 357.37-3.45 357.37-17.2 352.87-17.15 352.87-19.35ZM385.17-27.6L385.17-35.6 389.37-35.6 389.37-27.7 385.17-27.6ZM427.17-9.7L427.17-3.45 421.47 0 413.42 0 413.42-5.25 421.12-5.25 421.12-9.3 413.57-9.3 413.57-13.2 421.47-13.2 427.17-9.7ZM397.37-12.75L397.37-18.4 403.07-21.85 411.17-21.85 411.17-17.2 403.67-17.2 403.67-13.2 411.17-13.2 411.17-9.3 403.07-9.3 397.37-12.75ZM397.37-6.95L403.67-6.95 403.67-5.25 411.17-5.25 411.17 0 403.07 0 397.37-3.45 397.37-6.95ZM427.17-15.05L420.92-15.05 420.92-17.2 413.42-17.2 413.42-21.85 421.47-21.85 427.17-18.4 427.17-15.05ZM481.01-18.55L481.01-6.4 475.41-3 467.51-3 467.51-7 474.76-7 474.76-17.3 467.21-17.3 467.21-22 475.41-22 481.01-18.55ZM451.16 9.65L451.16-22 465.01-22 465.01-17.3 457.51-17.3 457.51-7 464.76-7 464.76-3 457.51-3 457.51 9.65 451.16 9.65ZM519.21-18.55L519.21-12.85 513.31-9.4 505.31-9.4 505.31-13.25 512.86-13.25 512.86-17.35 505.31-17.35 505.31-22.05 513.31-22.05 519.21-18.55ZM512.66-6.95L519.21-6.95 519.21-3.45 513.31 0 505.31 0 505.31-5.3 512.66-5.3 512.66-6.95ZM489.01-18.55L489.01-3.45 494.91 0 502.86 0 502.86-5.3 495.31-5.3 495.31-9.4 502.86-9.4 502.86-13.25 495.31-13.25 495.31-17.35 502.86-17.35 502.86-22.05 494.91-22.05 489.01-18.55ZM527.21-3.4L527.21-9.75 532.91-13.2 541.11-13.2 541.11-9.35 533.56-9.35 533.56-5.25 541.11-5.25 541.11 0.05 532.91 0.05 527.21-3.4ZM533.56-15.05L527.21-15.05 527.21-18.5 532.91-22 541.11-22 541.11-17.3 533.56-17.3 533.56-15.05ZM557.21 0.05L557.21-18.5 551.5-22 543.31-22 543.31-17.3 550.86-17.3 550.86-13.2 543.31-13.2 543.31-9.35 550.86-9.35 550.86-5.25 543.5-5.25 543.5 0.05 557.21 0.05ZM566.7 0.05L566.7-28.75 573-28.75 573-13.1 575.8-13.1 575.8-9.45 573-9.45 573 0.05 566.7 0.05ZM596.55-3.4L584-11.5 595.45-19.05 591.3-22 578.3-13.1 578.3-9.45 590.9 0.05 596.55-3.4Z" opacity="1" transform="matrix(1,0,0,1,0,0)" fill="#000000" class="slogan-text-1" data-fill-palette-color="secondary" id="text-1"></path></svg></g></svg></g></svg></g></svg></g></svg></g><defs></defs></svg><rect width="395.52" height="114.93638738304259" fill="none" stroke="none" visibility="hidden"></rect></g></svg></g></svg>